PathFileType	4	(X/Y/Z)	C:/Users/beibeiliu/ov580/test_trc\sequence.25_training_dense_right.trc
DataRate	CameraRate	NumFrames	NumMarkers	Units	OrigDataRate	OrigDataStartFrame	OrigNumFrames
120	120	24	19	mm	120	188	300
Frame#	Time	ThumbCMC			ThumbMCP			ThumbIP			ThumbTip			IndexMCP			IndexPIP			IndexTip			MiddleMCP			MiddlePIP			MiddleTip			RingMCP			RingPIP			RingTip			PinkyMCP			PinkyPIP			PinkyTip			BackHand1			BackHand2			BackHand3	
		X0	Y0	Z0	X1	Y1	Z1	X2	Y2	Z2	X3	Y3	Z3	X4	Y4	Z4	X5	Y5	Z5	X6	Y6	Z6	X7	Y7	Z7	X8	Y8	Z8	X9	Y9	Z9	X10	Y10	Z10	X11	Y11	Z11	X12	Y12	Z12	X13	Y13	Z13	X14	Y14	Z14	X15	Y15	Z15	X16	Y16	Z16	X17	Y17	Z17	X18	Y18	Z18	
187	1.55833	215.665	25.3079	29.3036	183.615	41.2609	24.8309	159.47	41.6799	21.5892	136.671	31.0645	20.0641	173.573	24.939	-21.7485	150.015	41.4163	-27.6167	129.972	48.2323	-24.1392	160.266	13.4142	-19.0755	135.599	30.7464	-21.4326	113.388	43.6231	-11.3044	149.258	7.63918	1.89932	147.294	23.4399	20.5103	173.56	18.7376	36.2467	147.358	-4.9591	19.7272	155.588	10.33	37.7262	182.051	6.03188	39.8189	193.919	-23.2908	9.75202	213.158	-26.776	25.6906	216.479	-1.67676	7.91392	
188	1.56667	212.146	23.8335	27.7904	183.264	46.781	22.8403	156.96	42.9399	13.9202	134.902	35.7326	13.3928	173.24	27.8854	-27.8035	150.828	40.2099	-32.2425	132.073	50.1725	-32.8408	157.896	16.0022	-25.7542	135.925	26.1247	-26.9754	112.921	47.9106	-19.098	148.736	10.022	-2.95366	142.705	26.2625	17.1078	167.537	20.6285	33.7396	147.154	-1.6678	12.5477	151.488	16.7934	29.7186	177.706	9.95741	34.0534	189.056	-21.6386	11.1218	207.269	-26.22	24.6587	213.586	-7.5558	11.1073	
189	1.575	208.891	27.5577	22.2951	180.509	46.7116	14.6169	154.282	47.6485	6.00388	134.099	37.2548	5.21235	175.435	25.9148	-29.9209	154.152	41.3548	-40.8974	137.65	53.4029	-43.9648	157.544	15.2687	-30.573	135.716	33.7024	-36.9079	117.228	50.5425	-31.5398	144.096	14.3735	-7.63361	143.21	32.1398	10.4344	161.973	23.7439	29.0433	141.365	-2.04618	9.85798	147.977	20.9508	22.6566	168.478	13.9902	29.7637	183.077	-22.1676	8.56649	202.306	-26.136	26.7898	210.364	-4.50433	8.62641	
190	1.58333	209.245	25.7028	23.0275	181.283	46.6039	9.74515	158.406	49.514	1.61072	133.656	40.8482	-3.23182	176.085	25.9367	-36.3724	157.842	38.5851	-47.0501	138.709	51.8574	-53.7096	159.896	12.9778	-32.56	135.882	31.102	-42.7	116.461	51.5366	-39.5238	143.523	16.5097	-12.3341	141.627	34.394	3.81323	163.579	26.5454	24.2153	142.56	2.19311	2.64973	143.257	24.4873	16.4331	164.432	17.3475	26.7793	177.541	-19.7488	6.04428	198.202	-25.4589	28.8974	208.855	-4.58194	6.88511	
191	1.59167	205.187	24.9392	16.3514	184.389	45.1665	7.82638	158.182	50.8606	-7.84912	138.382	47.7005	-10.8324	173.911	22.6613	-40.7484	160.862	34.5808	-52.8467	147.116	47.8833	-61.8795	157.282	13.6748	-39.8287	141.157	27.4702	-50.0312	123.224	50.1141	-53.3867	144.449	12.4643	-16.806	142.202	36.4929	-3.1406	162.277	31.4897	16.3996	136.845	4.66925	-0.97428	139.881	26.1655	13.4692	165.458	19.5963	20.7558	180.16	-18.5935	3.20514	194.92	-22.6248	26.9685	202.304	-6.34046	4.93388	
192	1.6	206.765	25.8542	14.5477	185.084	50.0863	0.952915	162.551	48.2718	-12.979	141.438	49.0995	-18.2277	181.39	22.253	-44.2411	164.73	29.7746	-55.752	148.206	46.1204	-70.3082	160.205	12.2849	-43.1014	146.059	28.7059	-56.9003	129.641	47.3095	-66.914	145.547	18.2194	-23.3986	140.228	37.6331	-8.43562	163.866	34.0906	11.8009	140.153	10.0083	-7.76324	141.202	30.4455	6.68832	160.078	23.7126	21.0463	176.427	-16.8825	3.19062	190.79	-21.0719	23.082	205.751	-7.00547	7.40382	
193	1.60833	206.42	24.7162	16.5469	184.955	48.3772	-5.18513	167.134	52.4248	-14.5731	143.575	49.9437	-24.5209	184.233	18.7863	-44.383	170.253	29.0998	-61.1174	155.207	44.1695	-77.0841	164.266	13.3123	-46.8606	152.785	24.5062	-60.6178	136.446	41.7069	-74.4037	147.668	13.6705	-25.348	145.581	40.7179	-14.3946	163.053	36.6176	8.80267	136.926	7.41096	-8.12249	141.169	32.6646	3.64437	160.856	24.3498	18.1597	172.713	-18.4448	-0.420517	186.515	-23.3515	27.2529	203.82	-7.16144	7.66492	
194	1.61667	207.624	27.5926	12.9859	187.286	49.6641	-7.81943	166.935	51.7551	-22.6997	146.989	48.8786	-28.9425	182.409	16.2534	-49.4263	172.363	26.603	-66.4324	157.809	35.5673	-79.3659	164.475	9.41566	-50.5574	151.627	20.4124	-66.0885	139.368	35.1546	-82.2534	148.137	15.6029	-29.4061	142.928	39.1073	-19.3365	157.398	39.1573	4.45139	140.668	12.7816	-15.3353	138.863	31.9251	-3.48091	160.793	29.8182	9.56147	173.837	-14.9121	-1.20394	186.238	-21.1239	24.7062	203.565	-6.63383	3.75979	
195	1.625	205.557	25.8876	9.72514	187.07	46.1761	-10.9583	169.744	49.7015	-23.5397	149.152	44.9072	-32.6643	185.875	15.3401	-51.3732	177.604	23.8392	-69.8613	165.684	34.9637	-88.8144	171.108	8.90348	-52.7326	158.4	18.8969	-70.6321	143.397	28.3644	-85.9045	148.116	15.8149	-32.3836	144.595	39.3043	-24.8315	159.937	40.6529	0.139022	139.77	12.4267	-18.3391	139.376	33.365	-7.38084	164.302	30.7219	7.42875	177.106	-12.7968	0.940344	184.297	-17.4779	25.1942	201.803	-5.7799	6.25926	
196	1.63333	206.461	27.2469	10.5481	188.698	45.9201	-12.9305	171.519	48.6287	-26.5135	151.641	49.1536	-38.6773	189.525	13.1406	-53.6946	180.398	21.0854	-70.5764	171.257	29.4429	-89.9746	171.349	7.29845	-54.365	160.749	15.6634	-73.3744	147.539	27.8604	-93.7169	153.615	15.3845	-36.2342	145.948	40.7594	-27.3077	159.442	41.5035	-2.24365	144.409	12.2816	-20.3778	144.447	36.2888	-9.3607	159.928	35.2601	8.06311	172.388	-16.4043	-1.16017	182.713	-16.1869	28.6666	200.653	-5.66413	5.63732	
197	1.64167	207.197	28.2188	12.2488	190.841	47.2455	-16.0627	174.31	49.3278	-32.1545	156.399	48.1242	-39.4831	193.098	11.265	-50.7646	182.735	18.2823	-73.2972	173.246	23.9854	-88.1528	178.13	4.76963	-50.9848	168.459	12.4498	-71.6425	152.485	24.7666	-96.0892	157.5	14.9597	-37.7383	149.21	40.7162	-29.4378	163.051	43.3318	-7.7834	141.925	9.66731	-20.9163	146.011	36.3171	-13.8333	162.642	33.1745	1.91461	174.448	-12.662	-1.03458	185.796	-12.694	29.1393	205.323	-5.15083	6.07963	
198	1.65	207.412	28.3399	12.5811	194.499	46.5555	-11.0135	178.475	48.5332	-32.438	158.172	48.0395	-47.4818	200.765	9.32813	-48.4321	188.531	14.7295	-72.1238	182.484	22.439	-94.2222	178.413	1.56834	-52.1182	175.68	11.7661	-75.931	163.867	20.3784	-97.617	158.954	12.2074	-37.8822	154.174	40.5798	-33.8098	165.174	43.0707	-12.197	146.344	10.8943	-24.9897	147.459	35.7615	-16.501	161.74	35.3375	1.14201	176.852	-12.2138	2.04394	186.071	-13.1803	25.1625	203.055	-4.40224	9.86682	
199	1.65833	208.719	28.0863	9.24524	196.643	46.9924	-18.1779	181.039	44.678	-35.9437	164.352	44.4278	-47.9745	201.757	7.07273	-50.6556	200.22	12.2304	-70.5427	190.301	16.9401	-90.4803	185.645	0.297737	-53.6731	182.552	7.91146	-73.6426	169.048	16.2453	-98.8343	163.707	11.2338	-40.3625	161.325	38.86	-38.2474	167.165	41.1481	-10.3076	149.886	8.40083	-25.6953	151.755	36.0992	-20.6848	166.073	34.5603	-1.05291	176.93	-13.6464	-0.555925	185.315	-11.2884	29.3057	209.846	-3.62503	10.1522	
200	1.66667	211.165	29.3549	12.148	200.616	46.4026	-13.3321	186.155	44.6913	-37.3085	170.364	44.0144	-51.2255	210.741	5.29216	-47.4335	204.55	8.30043	-71.2872	198.339	12.5755	-91.1302	189.928	-1.64346	-53.472	186.444	3.47031	-74.1123	178.349	10.3945	-98.6163	167.899	9.41428	-42.4533	162.645	36.8156	-38.7622	169.733	39.7761	-10.4288	152.935	7.9375	-28.3391	157.731	34.909	-23.5005	169.285	34.8643	-1.3593	185.122	-13.1856	0.918989	184.257	-11.2296	32.0846	208.624	-4.64084	11.4395	
201	1.675	215.675	30.8254	14.909	204.894	44.9564	-17.8922	193.41	44.1813	-35.7584	176.193	40.8561	-52.7805	216.212	2.22118	-44.7199	210.125	3.15246	-69.4951	207.568	6.7266	-90.0036	194.536	-4.83145	-50.8464	197.167	0.708231	-74.2285	188.591	5.59498	-101.498	172.25	5.7703	-40.7846	165.956	32.8532	-42.9583	176.425	41.0277	-15.9783	158.864	6.2947	-28.3771	158.57	32.3354	-27.7701	171.909	33.5056	-3.55131	181.887	-14.2011	2.26287	188.31	-10.6151	29.7338	212.354	-1.27563	15.4707	
202	1.68333	216.048	29.4549	13.0529	207.243	43.6863	-15.3746	196.218	41.1256	-39.2332	180.541	34.1525	-52.7006	222.566	-1.14522	-45.6799	217.303	-0.364395	-67.0745	214.013	-0.078747	-88.6956	204.08	-6.63788	-46.5075	201.061	-5.07619	-73.4649	199.71	0.239875	-96.1837	181.02	4.81106	-42.927	173.092	32.0268	-43.1339	177.345	39.8898	-18.9251	162.07	4.90722	-30.4796	165.736	29.961	-29.6688	173.637	34.4364	-4.46136	186.861	-15.7891	6.60376	185.769	-9.77978	30.5374	212.798	-2.98428	16.7937	
203	1.69167	220.959	30.4105	12.0076	212.084	43.7923	-16.9706	199.432	37.4404	-38.8493	185.062	32.5203	-55.8981	226.218	-3.87668	-43.6355	225.829	-4.29429	-64.0203	224.357	-4.99543	-89.2836	207.978	-11.9025	-48.9175	207.907	-9.44892	-70.5985	203.531	-7.71104	-96.5031	182.586	0.381202	-42.1809	178.559	29.5186	-44.3337	179.616	36.9829	-17.579	168.722	3.86805	-33.1841	170.882	27.4231	-29.5075	177.209	32.9476	-8.23419	190.452	-16.3928	6.47934	186.266	-10.2545	35.7902	216.86	-5.38612	17.5666	
204	1.7	219.453	30.2265	15.8893	212.147	38.8082	-16.2611	204.202	35.7955	-39.9017	190.525	30.6744	-55.1199	227.563	-9.42571	-40.9013	229.953	-9.10546	-62.878	226.338	-12.3366	-86.3902	210.645	-16.0213	-45.4624	210.499	-15.8416	-68.3497	213.478	-14.3006	-93.6993	188.581	-2.09026	-43.9366	179.552	24.889	-45.0773	185.45	35.1761	-19.8902	172.483	-1.59619	-31.0303	169.669	23.9736	-30.3472	179.902	30.4515	-9.56284	191.634	-15.4898	8.25774	189.453	-9.88021	33.7203	217.139	-4.04398	20.556	
205	1.70833	220.606	29.4847	14.422	217.273	40.8689	-16.9818	207.753	33.343	-39.42	194.032	23.1191	-54.9387	232.129	-11.4319	-37.9771	234.471	-13.7686	-60.7433	234.468	-16.2507	-77.6569	215.012	-19.0578	-39.3535	216.886	-20.4918	-64.0154	218.298	-22.6995	-93.3392	190.776	-7.90092	-42.9682	187.042	17.4297	-47.5908	188.42	31.0481	-23.5253	178.192	-6.77604	-28.3173	175.275	18.7061	-33.5089	183.406	27.7045	-9.14569	193.352	-20.1676	9.79366	193.897	-8.28728	37.2343	218.481	-5.68049	22.4324	
206	1.71667	222.608	28.7339	14.5671	217.748	35.7668	-19.3115	210.316	27.7548	-43.0055	198.36	18.0264	-57.1795	237.15	-14.2517	-33.2088	240.625	-16.158	-54.0764	241.341	-21.4361	-76.1073	222.158	-22.8028	-34.8304	223.973	-26.3696	-59.4659	228.795	-28.2594	-86.3149	197.346	-13.428	-37.2603	189.281	14.9389	-45.9724	187.606	27.4535	-20.0798	182.401	-10.9608	-28.5733	181.884	15.1758	-33.3391	184.757	24.1685	-11.5982	200.708	-18.9195	12.1944	192.885	-9.75975	35.1664	219.046	-4.18214	23.5556	
207	1.725	221.51	31.1997	17.1417	218.479	32.2422	-17.6744	215.017	25.095	-42.5999	204.117	14.7494	-57.0885	245.987	-14.2322	-28.0133	247.491	-20.5532	-48.6892	250.874	-23.7447	-68.3059	231.37	-25.3695	-35.2026	233.93	-29.6291	-54.0441	240.995	-32.9114	-81.4854	204.385	-16.5374	-33.8191	194.677	10.7366	-44.5928	191.156	23.4306	-23.9948	188.829	-15.2902	-26.0083	181.677	10.2237	-32.9534	187.616	20.7217	-11.7476	204.189	-20.4346	15.8615	192.954	-9.32135	41.0899	221.771	-2.21036	30.0693	
208	1.73333	222.846	31.7643	16.5366	221.05	34.5485	-17.1191	218.281	20.665	-40.2974	210.7	7.17263	-58.4299	253.252	-12.8642	-20.1721	258.219	-18.5032	-39.0186	264.204	-28.2425	-64.3277	240.864	-25.8067	-28.5565	243.591	-33.1273	-48.5399	250.008	-37.728	-72.6759	214.549	-18.7104	-31.3848	205.518	1.56265	-44.6956	195.151	19.4094	-23.9314	195.977	-17.5995	-28.3845	187.326	1.83529	-34.6618	190.864	17.255	-13.4872	209.054	-18.8347	18.1419	199.104	-9.59423	40.2671	225.061	-2.42802	29.1889	
209	1.74167	223.374	34.4946	18.2023	222.369	30.9777	-16.7427	221.335	19.7132	-36.6304	216.732	4.76201	-56.1338	258.574	-10.0043	-12.4389	265.276	-19.2248	-34.0133	272.135	-27.1292	-51.0699	246.033	-26.1963	-19.5474	254.123	-34.1342	-42.2469	264.058	-36.5027	-65.9377	222.616	-21.5629	-27.7318	207.335	1.19906	-41.5429	198.045	15.67	-18.9716	204.554	-22.4668	-24.0337	197.092	0.638341	-31.3411	194.974	13.9028	-11.7915	212.041	-22.809	20.4338	198.703	-9.58208	41.7853	225.372	-0.753873	33.0795	
210	1.75	220.832	31.7891	21.7066	223.843	28.0779	-13.9478	224.495	16.8687	-35.2575	221.653	8.49648	-51.0791	265.663	-7.73331	-9.69037	271.751	-15.7506	-26.152	285.394	-23.7138	-46.921	255.85	-26.0197	-17.3786	267.678	-28.7053	-35.9917	273.768	-35.099	-57.953	229.509	-23.1324	-21.971	218.295	-1.65202	-38.9283	206.392	14.3447	-21.1115	210.99	-27.2651	-17.5105	204.287	-5.15242	-30.0654	200.435	8.95445	-10.0452	218.703	-18.1316	25.5889	202.676	-7.74722	47.6739	228.908	3.73732	38.9717	
